<?xml version="1.0" standalone="no"?>
<!DOCTYPE svg PUBLIC "-//W3C//DTD SVG 20010904//EN"
 "http://www.w3.org/TR/2001/REC-SVG-20010904/DTD/svg10.dtd">
<svg version="1.0" xmlns="http://www.w3.org/2000/svg"
 width="157.000000pt" height="66.000000pt" viewBox="0 0 157.000000 66.000000"
 preserveAspectRatio="xMidYMid meet">

<g transform="translate(0.000000,66.000000) scale(0.100000,-0.100000)"
fill="#000000" stroke="none">
<path d="M172 623 c-25 -5 -58 -51 -67 -95 -4 -15 1 -54 9 -87 19 -72 85 -221
98 -221 6 0 7 8 3 17 -3 10 -15 72 -27 138 -21 126 -19 191 7 232 9 13 12 22
8 22 -5 -1 -18 -4 -31 -6z"/>
<path d="M267 598 c26 -51 17 -195 -23 -353 -12 -48 13 -25 41 38 70 159 82
243 45 305 -11 17 -26 32 -34 32 -8 0 -21 3 -30 6 -14 5 -13 2 1 -28z"/>
<path d="M69 554 c-7 -8 -14 -39 -16 -67 -4 -47 0 -60 42 -132 71 -124 92
-141 34 -29 -55 106 -72 182 -50 223 14 25 9 28 -10 5z"/>
<path d="M381 549 c20 -39 3 -109 -53 -221 -30 -59 -52 -105 -48 -103 4 3 33
47 65 100 65 107 78 161 51 213 -9 18 -19 32 -22 32 -2 0 0 -10 7 -21z"/>
<path d="M533 329 c-14 -51 -17 -79 -10 -76 6 2 14 14 17 28 5 20 12 24 45 24
33 0 40 -4 45 -24 3 -14 11 -26 17 -28 7 -3 4 25 -10 76 -21 79 -22 81 -52 81
-30 0 -31 -2 -52 -81z m77 19 c0 -13 -8 -18 -30 -18 -28 0 -29 2 -19 26 5 15
12 31 16 37 8 13 33 -21 33 -45z"/>
<path d="M680 330 c0 -47 4 -80 10 -80 6 0 10 33 10 80 0 47 -4 80 -10 80 -6
0 -10 -33 -10 -80z"/>
<path d="M722 333 l3 -78 30 -2 c27 -2 28 -2 8 7 -19 7 -23 17 -23 50 0 33 3
40 20 40 11 0 20 5 20 10 0 6 -9 10 -20 10 -13 0 -20 7 -20 20 0 11 -5 20 -10
20 -7 0 -10 -29 -8 -77z"/>
<path d="M810 360 c0 -5 13 -10 29 -10 43 0 47 -17 7 -24 -41 -8 -60 -28 -51
-56 5 -17 15 -20 56 -20 l49 0 0 41 c0 59 -14 79 -55 79 -19 0 -35 -4 -35 -10z
m68 -72 c-3 -25 -33 -34 -57 -19 -21 13 4 41 36 41 20 0 24 -4 21 -22z"/>
<path d="M1483 325 c0 -27 2 -38 4 -22 2 15 2 37 0 50 -2 12 -4 0 -4 -28z"/>
<path d="M923 295 c0 -27 2 -38 4 -22 2 15 2 37 0 50 -2 12 -4 0 -4 -28z"/>
<path d="M1036 327 c3 -10 9 -15 12 -12 3 3 0 11 -7 18 -10 9 -11 8 -5 -6z"/>
<path d="M1260 310 c0 -16 2 -30 4 -30 2 0 6 14 8 30 3 17 1 30 -4 30 -4 0 -8
-13 -8 -30z"/>
<path d="M1330 310 c0 -16 2 -30 4 -30 2 0 6 14 8 30 3 17 1 30 -4 30 -4 0 -8
-13 -8 -30z"/>
<path d="M1379 308 c4 -28 6 -29 9 -9 2 13 0 27 -5 32 -6 6 -7 -3 -4 -23z"/>
<path d="M1120 320 c0 -5 5 -10 11 -10 5 0 7 5 4 10 -3 6 -8 10 -11 10 -2 0
-4 -4 -4 -10z"/>
<path d="M990 306 c0 -8 4 -17 9 -20 5 -4 7 3 4 14 -6 23 -13 26 -13 6z"/>
<path d="M1156 297 c3 -10 9 -15 12 -12 3 3 0 11 -7 18 -10 9 -11 8 -5 -6z"/>
<path d="M510 156 c0 -2 8 -10 18 -17 15 -13 16 -12 3 4 -13 16 -21 21 -21 13z"/>
<path d="M1176 147 c3 -10 9 -15 12 -12 3 3 0 11 -7 18 -10 9 -11 8 -5 -6z"/>
<path d="M1360 150 c0 -5 5 -10 11 -10 5 0 7 5 4 10 -3 6 -8 10 -11 10 -2 0
-4 -4 -4 -10z"/>
<path d="M246 72 c-3 -5 1 -9 9 -9 8 0 12 4 9 9 -3 4 -7 8 -9 8 -2 0 -6 -4 -9
-8z"/>
<path d="M306 72 c-3 -5 1 -9 9 -9 8 0 12 4 9 9 -3 4 -7 8 -9 8 -2 0 -6 -4 -9
-8z"/>
</g>
</svg>
